<?xml version="1.0" encoding="UTF-8" standalone="no"?>
<svg
   fill="none"
   viewBox="0 0 500 500"
   version="1.1"
   id="svg4"
   sodipodi:docname="icon.svg"
   xml:space="preserve"
   inkscape:version="1.3.2 (091e20e, 2023-11-25, custom)"
   inkscape:export-filename="apple-touch-icon.png"
   inkscape:export-xdpi="34.560001"
   inkscape:export-ydpi="34.560001"
   xmlns:inkscape="http://www.inkscape.org/namespaces/inkscape"
   xmlns:sodipodi="http://sodipodi.sourceforge.net/DTD/sodipodi-0.dtd"
   xmlns="http://www.w3.org/2000/svg"
   xmlns:svg="http://www.w3.org/2000/svg"><defs
     id="defs4" /><sodipodi:namedview
     id="namedview4"
     pagecolor="#ffffff"
     bordercolor="#000000"
     borderopacity="0.25"
     inkscape:showpageshadow="2"
     inkscape:pageopacity="0.0"
     inkscape:pagecheckerboard="0"
     inkscape:deskcolor="#d1d1d1"
     inkscape:zoom="0.806"
     inkscape:cx="397.02233"
     inkscape:cy="334.36725"
     inkscape:window-width="1920"
     inkscape:window-height="1009"
     inkscape:window-x="-8"
     inkscape:window-y="1192"
     inkscape:window-maximized="1"
     inkscape:current-layer="svg4" /><g
     id="g1"
     transform="matrix(14.326045,0,0,14.326045,-669.60006,-625.4511)"
     style="fill:#4350ff;fill-opacity:1"><g
       id="g2"
       transform="translate(-40.348291,-88.859098)"
       style="fill:#4350ff;fill-opacity:1"><path
         id="rect50"
         style="fill:#4350ff;stroke-width:0.202539;stroke-linejoin:round;stroke-dasharray:0.607615, 0.607615;fill-opacity:1"
         d="m 105.43372,138.5993 h 4.68577 v 27.42353 h -4.68577 z" /><path
         id="rect55"
         style="fill:#4350ff;stroke-width:0.17229;stroke-linejoin:round;stroke-dasharray:0.516865, 0.516865;fill-opacity:1"
         d="m 111.90896,138.5993 h 4.68577 v 16.94739 l -1.78938,2.89639 -2.89639,-3e-5 z"
         sodipodi:nodetypes="cccccc" /></g><path
       style="display:inline;fill:#4350ff;fill-opacity:1"
       d="m 58.894737,69.244952 c -0.361515,-0.94809 0.216863,-0.78616 0.166608,-1.53744 -0.05026,-0.75127 -0.02364,-1.23524 -0.143131,-2.2151 -0.119498,-0.97987 -0.307937,-1.41859 -0.307937,-2.85052 0,-1.09254 0.0211,-7.2193 0,-9.50803 -0.01798,-1.95044 0.110161,-0.0537 0.110898,-2.75208 7.25e-4,-2.65388 -0.110898,-5.13041 -0.110898,-5.21342 0,-0.19193 0.43386,-0.11958 0.503541,0.062 0.02974,0.0775 0.05442,0.34807 0.05484,0.60128 0.0012,0.69951 0.102406,1.3957 0.202939,1.3957 0.05816,0 0.06914,-0.29419 0.03116,-0.83453 -0.06328,-0.90023 0.01545,-1.11004 0.373862,-0.99628 0.11035,0.035 0.19061,0.006 0.22418,-0.0817 0.0604,-0.15751 0.0617,-0.0124 0.53487,-0.0124 0.0637,0 -0.0613,0.91155 -0.12558,1.93618 -0.082,1.31391 -0.0884,2.07611 -0.0217,2.14279 0.0667,0.0667 0.11389,-0.38204 0.16015,-1.52255 0.0916,-2.25884 0.13089,-2.80447 0.37304,-2.80447 0.34311,0 0.27295,0.13695 0.37795,0.94522 0.0669,0.51477 0.17725,0.0792 0.15841,-0.2283 0.0177,-0.25148 -0.0216,-0.33628 0.0291,-0.43108 0.11673,-0.21811 0.40891,-0.22289 0.52362,-0.009 0.1576,0.29448 0.27681,0.75366 0.32412,2.74905 0.0837,3.5323 0.12761,3.64635 0.35973,0.93533 0.2545,-0.48355 -0.51625,-3.18557 0.12605,-3.37418 0.45895,0 0.47549,0.93438 0.47549,1.20313 -0.24454,2.28284 -0.0376,-1.24969 -0.11807,7.12342 -0.0781,8.13144 0.0423,14.48531 -0.0781,15.20058 -0.0464,0.27565 -0.37702,0.36722 -0.52798,0.38892 -0.28151,0.0405 -0.31981,0.0149 -0.26355,-1.4882 0.0265,-0.70705 0.0314,-1.26881 0.0109,-1.24834 -0.0205,0.0205 -0.25084,0.7218 -0.1301,1.54239 0.0981,0.66669 -0.17396,1.11001 -0.41363,1.11001 -0.64059,0 -0.20424,0.0883 -0.21319,-1.77588 -0.0125,-2.61036 -0.10282,-3.27697 -0.2006,-1.48116 -0.094,1.72726 -0.12806,1.86397 -0.47227,1.89781 -0.27181,0.0267 -0.27786,0.0379 -0.37589,0.69707 -0.12658,0.85105 0.17858,0.77273 -0.0467,0.74863 -0.17,-0.0182 -0.33669,0.0241 -0.62731,0.0241 -0.290619,0 -0.432476,-0.0983 -0.538108,-0.26921 z m 1.579682,-5.03311 c 0,0 -0.13078,-0.0153 -0.21776,0.009 -0.10259,0.0281 0.137,2.4693 0.137,2.4693 l 0.10632,-0.32219 z m 1.46922,-8.55093 -0.0751,-3.25137 -0.0139,2.53874 c -0.008,1.39631 0.0161,3.18011 0.0526,3.964 0.10413,2.23134 0.12327,0.51657 0.0363,-3.25137 z m -0.92056,-8.38051 c 9e-5,-1.3963 -0.0309,3.04059 -0.0689,3.16573 -0.0739,0.24366 -0.14407,-1.44522 -0.0979,-0.26356 0.0274,0.70079 0.029,0.70523 0.0972,0.26724 0.0382,-0.24497 0.0694,-1.7731 0.0695,-3.16941 z m -4.60385,22.16398 c -0.02435,-0.0635 -0.324225,-1.10162 -0.310575,-2.63046 0.01364,-1.52884 -0.0053,-2.77969 -0.04201,-2.77967 -0.03674,3e-5 -0.06742,0.97212 -0.06817,2.16021 -7.5e-4,1.18808 -0.03483,2.21293 -0.07573,2.27742 -0.0409,0.0645 -0.130477,0.12656 -0.199063,0.13791 -0.06858,0.0113 -0.207031,0.066 -0.307657,0.12148 -0.253727,0.13985 -0.409115,0.0156 -0.487404,-0.38965 -0.05368,-0.27786 -0.06827,-0.20645 -0.07656,0.37455 -0.01707,1.19635 -0.133999,0.86778 -1.065083,0.61345 -0.56936,-0.15552 -0.212339,-1.087 -0.410423,-2.48934 l -0.125826,-0.89079 0.01611,1.47991 0.01611,1.4799 -0.202408,0.43126 c -0.205048,0.43688 -0.615931,0.16984 -0.677598,-0.24637 -0.221064,-1.49202 -0.292201,-6.70582 -0.140744,-10.31553 0.04625,-1.10235 -0.127069,-3.17738 -0.127069,-4.56779 0,-1.94816 0,-4.47067 0.08185,-4.47067 0.285315,0 0.506143,0.0885 0.516752,0.13121 0.01061,0.0427 0.03016,2.65186 0.0563,1.72157 0.04372,-1.55611 0.06075,-1.69393 0.21287,-1.72312 0.246452,-0.0473 0.304908,0.0576 0.413662,0.74215 0.101599,0.63953 0.267236,0.9886 0.267236,0.5632 0,-0.30114 0.2014,-0.47108 0.419779,-0.35421 0.136943,0.0733 0.196382,0.0314 0.361036,-0.25474 0.390325,-0.6782 0.836576,-0.51246 0.938555,0.34859 0.02926,0.24708 0.104455,0.54057 0.167094,0.65221 l 0.113889,0.20298 0.02958,-0.19396 c 0.04373,-0.28671 0.47545,-1.88189 0.641375,-1.74418 0.1804,0.14972 0.477914,-0.2488 0.465789,0.23988 -0.02147,0.86559 -0.07115,3.21255 -0.06893,6.03449 0.0032,4.01093 0.111835,13.23022 0.02894,13.36435 -0.07851,0.12703 -0.309279,0.11027 -0.361672,-0.0263 z m -2.202137,-4.84773 -0.201088,-0.25058 0.0574,1.29164 c 0.09781,2.20083 0.176513,2.40633 0.266535,0.69598 0.07719,-1.46649 0.07554,-1.48983 -0.122851,-1.73704 z m 1.184077,-3.6801 c 0.02588,-3.16007 0.01617,-5.36476 -0.02158,-4.89933 -0.115648,1.42573 -0.203813,7.37169 -0.134658,9.0816 0.03591,0.88798 0.07517,1.60299 0.08724,1.58891 0.01207,-0.0141 0.04312,-2.61112 0.069,-5.77118 z m 0.752971,1.93746 c -0.01875,-0.20822 -0.0341,-0.0379 -0.0341,0.37858 0,0.41644 0.01535,0.58681 0.0341,0.37859 0.01875,-0.20823 0.01875,-0.54895 0,-0.75717 z m -1.936004,-5.67876 c -0.05941,-1.54329 -0.138048,-3.14671 -0.174759,-3.56315 l -0.06675,-0.75717 -0.0128,0.72477 c -0.02048,1.15929 0.159331,6.54919 0.229899,6.89145 l 0.06428,0.31178 0.03407,-0.40086 c 0.01874,-0.22047 -0.01454,-1.66354 -0.07394,-3.20682 z m 2.026267,0.0223 c -0.01602,-0.47769 -0.02912,-0.0868 -0.02912,0.86851 0,0.95537 0.0131,1.3462 0.02912,0.86852 0.01602,-0.47769 0.01602,-1.25935 0,-1.73703 z m -2.978851,-0.15508 c 0.07136,-0.43975 -0.04151,-2.02488 -0.123747,-1.73785 -0.09231,0.3222 -0.0958,2.04881 -0.0041,2.04881 0.04258,0 0.100131,-0.13993 0.127886,-0.31096 z m 1.665342,-5.08355 c 0,-1.70892 -0.03085,-1.02651 -0.08789,-0.99126 -0.04834,0.0299 -0.173719,0.3369 -0.278623,0.68227 -0.151589,0.49907 -0.178575,-0.84086 -0.131488,-0.38126 0.03259,0.31806 0.115207,0.66479 0.183602,0.77052 0.08026,0.12406 0.14671,0.61077 0.187396,1.37251 0.03467,0.64916 0.07743,1.1803 0.09502,1.1803 0.01759,0 0.03198,-1.18489 0.03198,-2.63308 z"
       id="path62"
       sodipodi:nodetypes="cssssssscssscscsssscsccsccsssssssscssszccsscssccccccccsccccsssscssssscccssssssssssscsscssscsccccssscsssssssssssscsscsssssscssccsssssssss" /></g></svg>
